# xmcd
#
# Track frame offsets: 
#        150
#        13358
#        31272
#        46422
#
# Disc length: 823 seconds
#
# Revision: 0
# Processed by: cddbd v1.5.2PL0 Copyright (c) Steve Scherf et al.
# Submitted via: ExactAudioCopyFreeDBPlugin 1.0
#
DISCID=2c033504
DTITLE=The South Coast Wolves with Tortilla Flat Trio - Ways and Chains
DYEAR=2014
DGENRE=Blues
TTITLE0=Take My Love
TTITLE1=Ways and Chains
TTITLE2=You Hurt Me
TTITLE3=Love Navigator
EXTD=
EXTT0=
EXTT1=
EXTT2=
EXTT3=
PLAYORDER=
